<svg width="30" height="31" viewBox="0 0 30 31" fill="none" xmlns="http://www.w3.org/2000/svg">
<path d="M25 0.979492H5C1.66667 0.979492 0 2.97863 0 6.9769V24.9691C0 28.9674 1.66667 30.9665 5 30.9665H25C28.3333 30.9665 30 28.9674 30 24.9691V6.9769C30 2.97863 28.3333 0.979492 25 0.979492ZM24.9015 10.1875L16.7151 17.3284C16.2018 17.7762 15.6 18.0001 15 18.0001C14.4 18.0001 13.7966 17.7762 13.2849 17.3304L5.09847 10.1875C4.54014 9.70172 4.41674 8.76212 4.8234 8.09241C5.2284 7.4247 6.00649 7.27278 6.56982 7.76257L14.7567 14.9035C14.9033 15.0294 15.0983 15.0314 15.245 14.9035L23.4318 7.76257C23.9935 7.27278 24.7732 7.4247 25.1782 8.09241C25.5849 8.76412 25.4599 9.70172 24.9015 10.1875Z" fill="#25314C"/>
</svg>
